
<svg width="100%" height="100%" viewBox="0 0 500 500" xmlns="http://www.w3.org/2000/svg">
    <defs>
        <style>
            @keyframes type { 0%, 100% { width: 0; } 50%, 80% { width: 80px; } }
            .cursor { animation: type 4s steps(8) infinite; }
            .shadow { filter: drop-shadow(4px 4px 5px rgba(0,0,0,0.4)); }
            text { font-family: Arial, sans-serif; }
        </style>
        
        <clipPath id="clip"><rect x="8" y="8" width="484" height="484" rx="15"></rect></clipPath>
        <clipPath id="bClip"><rect class="cursor" x="35" y="50" height="20" width="80"></rect></clipPath>
    </defs>
    
    <rect x="8" y="8" width="484" height="484" rx="15" fill="none" class="shadow"></rect>

    <g clip-path="url(#clip)">
        <g transform="translate(8, 8) scale(0.968)"><rect width="500" height="500" fill="#5848d5"></rect><path d="M0,0L500,0v100.43c0-48.29-60.95-41.79-60.95,0v234.04c0,65.01-83.58,65.94-84.51,0v-255.4c0-36.68-54.79-34.51-54.79,0v112.38c0,58.55-79.87,58.55-79.87,0v-91.01c0-37.15-73.67-37.15-73.67,0v162.53c0,66.87-97.83,66.87-97.83,0v-162.53c0-35.22-48.37-35.22-48.37,0" fill="#0d0c52"></path></g>
        
        
        <!-- Metadata -->
        <text x="450" y="90" font-size="70" text-anchor="end" fill="white">😄</text>
        <text x="35" y="45" font-family="monospace" font-size="14" fill="white" fill-opacity="0.7">minted on block</text>
        <g clip-path="url(#bClip)">
            <text x="35" y="65" font-family="monospace" font-size="16" fill="#21c7f9" fill-opacity="0.8">#472936</text>
        </g>

        <!-- Main Text (Native SVG) -->
        <text x="250" y="181" font-size="18" fill="white" text-anchor="middle" style="filter: drop-shadow(1px 1px 1px rgba(0,0,0,0.5))">
            <tspan x="250" dy="0">This text is now rendered using native</tspan><tspan x="250" dy="26">SVG elements. It will calculate line</tspan><tspan x="250" dy="26">wrapping automatically without using</tspan><tspan x="250" dy="26">HTML divs. This ensures your NFT</tspan><tspan x="250" dy="26">renders correctly on OpenSea, Blur,</tspan><tspan x="250" dy="26">and mobile Wallets.</tspan>
        </text>

        <!-- Footer -->
        <text x="35" y="475" font-family="monospace" font-size="16" fill="#21c7f9" fill-opacity="0.7">INK</text>
        <text x="465" y="475" font-family="monospace" font-size="16" fill="#21c7f9" fill-opacity="0.7" text-anchor="end">MintMyMood</text>
    </g>
</svg>