
<svg width="100%" height="100%" viewBox="0 0 500 500" xmlns="http://www.w3.org/2000/svg">
    <defs>
        <style>
            @keyframes type { 0%, 100% { width: 0; } 50%, 80% { width: 80px; } }
            .cursor { animation: type 4s steps(8) infinite; }
            .shadow { filter: drop-shadow(4px 4px 5px rgba(0,0,0,0.4)); }
            text { font-family: Arial, sans-serif; }
        </style>
        <linearGradient gradientTransform="rotate(-202, .5, .5)" x1="50%" y1="0" x2="50%" y2="100%" id="g2-mega"><stop stop-color="#AAA" offset="0"></stop><stop stop-color="#fff" stop-opacity="0" offset="1"></stop></linearGradient><linearGradient gradientTransform="rotate(202, .5, .5)" x1="50%" y1="0" x2="50%" y2="100%" id="g3-mega"><stop stop-color="#555"></stop><stop stop-color="#fff" stop-opacity="0" offset=".4"></stop></linearGradient><filter id="f-mega" x="-20%" y="-20%" width="140%" height="140%"><feTurbulence type="fractalNoise" baseFrequency=".9" seed="2" stitchTiles="stitch"></feTurbulence><feColorMatrix type="saturate" values="0"></feColorMatrix><feComponentTransfer><feFuncR type="linear" slope="1.5"></feFuncR><feFuncG type="linear" slope="1.5"></feFuncG><feFuncB type="linear" slope="1.5"></feFuncB></feComponentTransfer><feColorMatrix values="1 0 0 0 0 0 1 0 0 0 0 0 1 0 0 0 0 0 20 -12"></feColorMatrix></filter>
        <clipPath id="clip"><rect x="8" y="8" width="484" height="484" rx="15"></rect></clipPath>
        <clipPath id="bClip"><rect class="cursor" x="35" y="50" height="20" width="80"></rect></clipPath>
    </defs>
    
    <rect x="8" y="8" width="484" height="484" rx="15" fill="none" class="shadow"></rect>

    <g clip-path="url(#clip)">
        <rect x="8" y="8" width="484" height="484" rx="15" fill="#111"></rect><rect x="8" y="8" width="484" height="484" rx="15" fill="url(#g3-mega)"></rect><rect x="8" y="8" width="484" height="484" rx="15" fill="url(#g2-mega)"></rect><rect x="8" y="8" width="484" height="484" rx="15" fill="transparent" filter="url(#f-mega)" opacity=".66" style="mix-blend-mode:soft-light"></rect>
        
            <g transform="translate(-194.6, -213.5) scale(0.9)" fill="#AAA" fill-opacity="0.25" style="pointer-events:none">
                <path d="M639 775c-11.7 0-22.8 0-34 0-4.7 0-8.7-1.1-12-4.9-16.5-18.8-32-38.4-47.8-57.7-1.9-2.3-1.2-4.6-.6-7 3.9-17.2 3.3-34-3.9-50.4-10.9-24.8-35.8-41.4-61.4-40.6-7 .2-14 2-17.3 4.7 6.7 1 13.2 1.3 19.4 2.8 27.5 6.9 47 22.7 53.1 51.5 4.5 21.4-2.4 40.1-16.5 56.3-2.8 3.2-6.3 5.7-9.5 8.5.3.6.6 1.2 1 1.8 5.8 0 11.5-.2 17.3 0 19.7.6 34.1 10.9 40.6 28.6.6 1.6 1.2 3.1 1 5-1.8 1.8-4.2 1.4-6.5 1.4-37.2 0-74.3 0-111.5 0-14.7 0-29.2-1.2-42.2-9.5-14.9-9.4-24.6-22.9-30.3-39.2-13.4-37.9-8.1-74.2 11.1-108.7 18-32.5 45.5-55.3 77.2-73.6 10.8-6.3 22.2-11.4 33.7-16.2 1.4-.6 2.7-1.4 5-.8 2.5 8.4 6.1 16.7 11.3 24.3 16.1 23.5 38.9 35.6 66.6 39.6 7.5 1.1 15 1.4 22.5.9 4.4-.3 5.9 1.5 6.1 5.6 1.3 24.1-2.7 47.1-16 67.4-5.3 8-5.7 15.4-3.6 23.8 4.1 16.4 10.4 32 18.9 46.6 2.2 3.7 5 5.2 9.2 5.6 16.8 1.6 29.8 12.6 34.9 28.7 1.3 4.2 0 5.5-4 5.5-3.6-.1-7.3 0-11.5 0zM614 453c16 7.2 28.1 18.3 37.5 32.5 8.4 12.7 15.7 25.9 21.1 40.2 1.6 4.1 1.5 7.9 0 12-7.1 19.3-19.2 32.9-40.1 38.2-28.3 7.2-55.8 7.2-81.9-7.4-22.2-12.4-35.2-31.3-36.4-57.1-.6-13 2.1-25.9 6.4-38.2 1.6-4.7.7-7.6-2.9-10.8-17.1-15-32.7-31.3-46.5-49.4-17.6-23.2-27.9-49.4-32.6-78-3.5-21-3.7-42-1-63.1.3-2.3.5-4.6 2.1-6.7 4 .6 6.9 3.2 10 5.3 28.7 18.9 53.4 41.9 72.5 70.7 14.4 21.7 22.3 46 28.9 70.9 2.5 9.5 4.6 19.1 6.5 28.7.8 4.1 2.3 5.5 6.6 5 17.1-2.1 33.5.4 49.7 7.2zm-10 62c1.4-.8 3-1.5 4.3-2.5 5.6-4.4 7.4-12.8 4.2-19.4-2.9-6.1-10.1-9.5-16.6-8-9.4 2.2-14.4 9.9-12.4 18.9 1.8 8.1 10.6 13.1 20.5 11zm-8.8-161c5.5 26.2 6.2 52.2 3.9 78.4-.3 3.8-1.7 5.9-6.1 4.5-6.7-2.2-13.8-1.8-20.7-2.2-4.2-.2-5.7-1.9-6.5-5.7-3.7-17.2-8.2-34.3-14-51-5.3-15.5-12.4-30.2-21.4-43.9-3.2-5-4.9-9.9-4.9-15.8 0-19 .5-37.9 5.4-56.4.5-1.7 1.1-3.4 1.6-5.1 17.6 3.1 54.3 59.8 62.7 97.2zM366.5 727.6c4.8 13.5 11.9 25.2 21.2 36.5-8.2 3.8-16.2 5.2-24.2 4.6-29.9-2.3-49.3-28.5-38.6-61.4 1-3 2.8-5.1 5.9-6.2 8.4-3.1 16.9-3.3 25.5-1 3.1.8 4.8 2.5 5.1 5.8.6 7.3 2.8 14.3 5.1 21.7z"></path>
            </g>
        
        <!-- Metadata -->
        <text x="450" y="90" font-size="70" text-anchor="end" fill="white">😄</text>
        <text x="35" y="45" font-family="monospace" font-size="14" fill="white" fill-opacity="0.7">minted on block</text>
        <g clip-path="url(#bClip)">
            <text x="35" y="65" font-family="monospace" font-size="16" fill="white" fill-opacity="0.8">#742267</text>
        </g>

        <!-- Main Text (Native SVG) -->
        <text x="250" y="181" font-size="18" fill="white" text-anchor="middle" style="filter: drop-shadow(1px 1px 1px rgba(0,0,0,0.5))">
            <tspan x="250" dy="0">This text is now rendered using native</tspan><tspan x="250" dy="26">SVG elements. It will calculate line</tspan><tspan x="250" dy="26">wrapping automatically without using</tspan><tspan x="250" dy="26">HTML divs. This ensures your NFT</tspan><tspan x="250" dy="26">renders correctly on OpenSea, Blur,</tspan><tspan x="250" dy="26">and mobile Wallets.</tspan>
        </text>

        <!-- Footer -->
        <text x="35" y="475" font-family="monospace" font-size="16" fill="white" fill-opacity="0.7">MEGAETH</text>
        <text x="465" y="475" font-family="monospace" font-size="16" fill="white" fill-opacity="0.7" text-anchor="end">MintMyMood</text>
    </g>
</svg>