<svg version="1.1" id="Layer_1" xmlns="http://www.w3.org/2000/svg" xmlns:xlink="http://www.w3.org/1999/xlink" x="0px" y="0px"
	 width="100%" viewBox="0 0 1024 608" enable-background="new 0 0 1024 608" xml:space="preserve">
<path fill="#8B7355" opacity="1.000000" stroke="none" 
	d="
M231.329010,400.520813 
	C225.666367,384.904388 224.461594,368.692108 220.608566,353.075348 
	C219.403595,348.191498 219.780640,343.126740 219.761032,338.133606 
	C219.717819,327.135071 219.401947,316.121246 219.861816,305.141479 
	C220.391113,292.504120 223.272415,280.166992 226.076599,267.868378 
	C227.553635,261.390381 229.084763,254.895782 231.133377,248.584579 
	C233.534256,241.188217 236.133591,233.806091 239.338669,226.731216 
	C246.468811,210.992081 254.898376,195.955994 264.726318,181.697983 
	C275.555206,165.987869 288.327393,151.811539 302.405090,139.246170 
	C315.810486,127.280922 330.582184,116.795837 346.919373,108.480431 
	C358.920898,102.371819 370.914856,96.390785 383.521240,91.808441 
	C394.887268,87.676964 406.587067,84.693008 418.599945,82.575935 
	C429.426544,80.667946 440.200836,79.150154 451.155548,78.308243 
	C468.203705,76.998047 485.297943,77.562363 501.952271,80.394806 
	C516.368896,82.846664 530.965027,85.426620 544.886841,90.679390 
	C573.218384,101.369049 599.628967,115.162422 622.746521,135.048096 
	C635.662964,146.158783 647.865295,157.940308 658.121704,171.467468 
	C669.351990,186.279022 679.515442,201.760117 687.488770,218.789886 
	C692.723267,229.969879 696.044189,241.786362 701.182556,252.935226 
	C702.606812,256.025452 702.929016,259.661774 703.527405,263.087616 
	C705.698303,275.517792 708.890747,287.709137 710.421509,300.323456 
	C712.592346,318.212158 711.123840,335.887848 709.985779,353.641724 
	C709.376343,363.146790 706.817566,372.359619 704.722046,381.577454 
	C702.446472,391.587189 699.554871,401.540710 695.521606,411.036102 
	C689.433716,425.369049 683.004639,439.490082 674.694702,452.794739 
	C664.669800,468.845306 653.471191,483.934448 640.044128,497.155182 
	C629.405090,507.630737 618.165344,517.493652 605.681152,525.969849 
	C593.130493,534.491089 580.370911,542.483643 566.515015,548.637207 
	C547.178711,557.224609 527.104980,562.925171 506.161041,566.619873 
	C483.238983,570.663574 460.389221,571.193665 437.568146,568.585754 
	C425.310364,567.184937 412.932800,565.366577 400.862915,561.835693 
	C379.766907,555.664307 359.905914,547.178101 340.784149,536.233459 
	C314.644440,521.271912 293.099365,501.310455 273.989777,478.520294 
	C260.736359,462.714294 249.854141,445.334137 241.511551,426.297394 
	C237.842560,417.925232 234.506241,409.486877 231.329010,400.520813 
M286.574341,466.914124 
	C292.630951,473.757812 298.242249,481.068695 304.833588,487.351379 
	C320.269440,502.064453 337.053711,515.198730 355.709808,525.595093 
	C370.642365,533.916565 386.583008,540.047913 402.975800,545.034058 
	C408.293640,546.651550 414.026550,546.354492 419.023529,548.423096 
	C427.984497,552.132751 437.479584,553.128113 446.771210,553.584473 
	C469.849365,554.717773 492.996735,554.968506 515.455505,547.765625 
	C523.804138,545.088135 532.492676,543.830627 540.826416,540.742615 
	C554.684937,535.607422 567.930176,529.396667 580.564941,521.846741 
	C601.488525,509.343842 620.614929,494.590179 636.499878,475.940887 
	C645.225769,465.696472 653.942871,455.424835 660.210144,443.384247 
	C666.387329,431.516815 672.910339,419.901306 678.312195,407.547394 
	C684.221252,394.033508 688.611572,379.985870 691.106567,365.977386 
	C695.475220,341.449371 695.810120,316.401306 692.386169,291.396454 
	C691.406006,284.238098 689.225464,277.528900 687.868958,270.557037 
	C686.604187,264.056824 685.344971,257.417877 682.903137,251.311996 
	C677.237732,237.145737 671.035706,223.241959 663.536682,209.841537 
	C648.587524,183.127853 628.833435,160.800751 604.867493,142.036179 
	C596.998901,135.875366 588.085754,131.240784 579.789368,125.737434 
	C565.876404,116.508301 550.394348,110.756851 534.950806,105.461311 
	C520.438049,100.484894 505.256836,96.803009 489.598022,96.451675 
	C480.792206,96.254097 472.125397,93.931633 463.236053,94.635643 
	C442.381195,96.287262 421.519135,97.044250 401.273834,103.807930 
	C389.120056,107.868340 376.818298,111.662941 365.564148,117.553925 
	C347.169983,127.182381 329.518158,137.959473 313.856018,152.104996 
	C302.039490,162.777298 291.286285,174.230591 281.806580,186.786804 
	C270.078613,202.320892 259.884827,218.970856 253.051163,237.337402 
	C248.773560,248.834152 244.224915,260.394440 241.683395,272.327759 
	C238.996628,284.943054 237.482712,297.847229 236.695312,310.881561 
	C234.599487,345.575317 240.187714,378.874878 253.145859,410.886322 
	C261.274597,430.967316 272.417267,449.483124 286.574341,466.914124 
z"/>
<path fill="#8B7355" opacity="1.000000" stroke="none" 
	d="
M574.348755,255.633987 
	C585.684143,265.604523 590.532776,278.566620 593.202271,292.500031 
	C593.927063,296.282928 595.288940,297.785706 599.177612,298.196991 
	C621.176697,300.523651 635.755310,313.770782 644.591492,332.657684 
	C649.555115,343.267212 649.127380,355.630737 647.095093,367.568817 
	C645.828430,375.009735 642.973633,381.459778 638.702881,387.581696 
	C628.458374,402.266693 614.663208,410.554596 596.938354,413.644806 
	C584.606262,415.794861 572.369934,415.156372 560.093140,415.186676 
	C494.613373,415.348419 429.132996,415.286469 363.652924,415.348175 
	C353.955048,415.357300 344.015320,415.459259 334.919769,412.458038 
	C321.550659,408.046631 309.012024,401.954681 299.527313,390.405609 
	C292.366455,381.686188 287.319763,372.158752 284.020966,361.696381 
	C281.722412,354.406342 281.569672,346.566345 281.949463,338.914307 
	C282.609619,325.613312 285.787109,312.916016 293.779266,302.016693 
	C306.472260,284.706543 323.207642,273.963959 345.045044,272.587982 
	C349.288605,272.320618 350.472961,269.789642 351.397034,266.799683 
	C354.467682,256.864685 358.880310,247.555084 364.960327,239.186523 
	C377.049042,222.547516 392.625061,210.702377 412.928619,205.697449 
	C423.148010,203.178314 433.339355,201.211700 444.008911,202.557846 
	C468.349487,205.628815 489.264618,215.455444 504.021515,235.267807 
	C509.599792,242.757141 514.968872,244.673157 523.185791,242.410950 
	C539.535278,237.909790 554.363220,242.521332 568.499756,250.476547 
	C570.614685,251.666718 572.238159,253.730286 574.348755,255.633987 
M532.499939,397.966919 
	C550.156372,397.991302 567.814514,397.871979 585.468567,398.089508 
	C597.699341,398.240204 608.572937,393.987762 617.545471,386.472260 
	C628.526062,377.274841 636.124451,357.875702 629.537231,341.842285 
	C621.962952,323.406219 605.990784,312.353149 586.313477,314.686707 
	C579.731079,315.467316 576.873352,313.039856 576.801880,306.579773 
	C576.777954,304.414337 576.812073,302.248322 576.812195,300.082550 
	C576.814026,272.604187 553.307556,252.997025 526.348999,258.268463 
	C522.019043,259.115143 517.908752,261.247833 513.798950,263.022400 
	C506.370667,266.229828 502.324585,264.774170 498.891571,257.432098 
	C498.260437,256.082214 497.674103,254.685028 496.848633,253.456436 
	C488.522400,241.063980 477.935333,231.533905 464.196136,225.077866 
	C449.050232,217.960831 433.346893,216.809082 417.966309,221.282578 
	C395.289551,227.878189 378.767731,242.442413 370.122437,265.038452 
	C367.657654,271.480591 367.672302,271.762268 374.159210,273.439087 
	C392.506622,278.181702 407.897949,286.142975 413.899048,306.222687 
	C416.595337,315.244446 414.549469,322.883606 409.326080,329.608765 
	C400.685883,340.733124 390.544495,343.554749 377.152100,338.982208 
	C367.682983,335.749084 360.507446,329.260101 356.169678,320.245392 
	C352.056427,311.697388 349.004700,302.723633 348.914490,293.022736 
	C348.877075,289.000610 346.934204,287.752014 343.038483,288.932343 
	C338.620697,290.270905 334.228699,291.403625 329.909027,293.296478 
	C315.413452,299.648315 305.374329,310.203888 301.019440,325.059723 
	C295.313446,344.524567 298.564819,362.935394 311.313263,379.210693 
	C317.482208,387.086273 326.129608,391.976318 335.044373,395.097961 
	C341.830017,397.474060 349.572998,398.249847 357.170441,398.171539 
	C379.813660,397.938080 402.461090,398.012207 425.106323,398.101410 
	C442.590973,398.170288 460.100342,399.109833 477.551880,398.440399 
	C495.548645,397.750061 513.518494,398.100769 532.499939,397.966919 
M388.258728,324.083771 
	C394.212219,323.465118 397.377472,320.047180 397.850433,314.180817 
	C398.193420,309.926239 396.850555,306.312439 394.319519,303.079071 
	C388.046631,295.065399 379.351990,291.377289 369.679047,289.491425 
	C366.993347,288.967804 365.946320,290.166962 366.200012,292.758545 
	C366.571838,296.556610 366.757782,300.384430 367.356201,304.146576 
	C369.081207,314.991272 377.949402,323.729980 388.258728,324.083771 
z"/>
</svg>